<svg xmlns="http://www.w3.org/2000/svg" width="17" height="17" fill="none"><mask id="a" width="17" height="17" x="0" y="0" maskUnits="userSpaceOnUse" style="mask-type:luminance"><path fill="#fff" d="M16.23.39h-16v16h16v-16Z"/></mask><g fill="currentColor" mask="url(#a)"><path d="M8.232 4.282a4.105 4.105 0 1 0 0 8.21 4.105 4.105 0 0 0 0-8.21Zm0 6.77a2.664 2.664 0 1 1 0-5.33 2.664 2.664 0 1 1 0 5.33Z"/><path d="M11.529.44C10.057.373 6.41.377 4.937.44 3.643.503 2.501.815 1.58 1.736.041 3.274.238 5.347.238 8.388c0 3.112-.173 5.137 1.342 6.652 1.545 1.544 3.648 1.342 6.653 1.342 3.082 0 4.146.002 5.236-.42 1.482-.575 2.601-1.9 2.71-4.28.07-1.472.066-5.117 0-6.59C16.047 2.282 14.54.58 11.53.44Zm2.33 13.582c-1.009 1.009-2.408.919-5.646.919-3.333 0-4.67.05-5.645-.929-1.123-1.118-.92-2.913-.92-5.635 0-3.683-.378-6.336 3.319-6.525.849-.03 1.099-.04 3.237-.04l.03.02c3.553 0 6.34-.372 6.507 3.324.038.843.047 1.096.047 3.23 0 3.296.062 4.64-.93 5.636Z"/><path d="M12.5 5.08a.96.96 0 1 0 0-1.92.96.96 0 0 0 0 1.92Z"/></g></svg>