<svg xmlns="http://www.w3.org/2000/svg" width="17" height="17" fill="none"><mask id="a" width="17" height="17" x="0" y="0" maskUnits="userSpaceOnUse" style="mask-type:luminance"><path fill="#fff" d="M16.23.39h-16v16h16v-16Z"/></mask><g fill="currentColor" mask="url(#a)"><path d="M11.442 6.058 7.385 9.374l-.191.157a.206.206 0 0 0-.077.134l-.042.353-.118.99a.046.046 0 0 1-.074.04.046.046 0 0 1-.017-.03l-.33-.992-.34-1.013a.204.204 0 0 1 .098-.242l4.221-2.42.795-.455c.115-.067.234.078.132.162Z"/><path d="M14.048.39H2.412A2.182 2.182 0 0 0 .23 2.572v11.636a2.181 2.181 0 0 0 2.182 2.182h11.636a2.182 2.182 0 0 0 2.182-2.182V2.572A2.182 2.182 0 0 0 14.048.39Zm-.828 4.63-1.562 6.902c-.073.323-.484.47-.773.272l-2.358-1.6-1.2 1.136a.412.412 0 0 1-.666-.147l-.434-1.273-.433-1.273-2.325-.636a.302.302 0 0 1-.026-.583l8.98-3.235.165-.06c.348-.121.708.16.632.498Z"/></g></svg>